<svg width="707" height="867" viewBox="0 0 707 867" fill="none" xmlns="http://www.w3.org/2000/svg">
<g clip-path="url(#clip0_2966_209)">
<path d="M0.5 1L0.500038 866" stroke="#F0EBE5" stroke-opacity="0.3"/>
<path d="M54.5 1V866" stroke="#F0EBE5" stroke-opacity="0.3"/>
<path d="M108.5 1V865" stroke="#F0EBE5" stroke-opacity="0.3"/>
<path d="M162.5 1V866" stroke="#F0EBE5" stroke-opacity="0.3"/>
<path d="M216 1L216.5 865.5" stroke="#F0EBE5" stroke-opacity="0.3"/>
<path d="M270.5 1L271 865.5" stroke="#F0EBE5" stroke-opacity="0.3"/>
<path d="M325 1L325.5 865.5" stroke="#F0EBE5" stroke-opacity="0.3"/>
<path d="M379.5 1L380 865.5" stroke="#F0EBE5" stroke-opacity="0.3"/>
<path d="M434.5 1V866" stroke="#F0EBE5" stroke-opacity="0.3"/>
<path d="M488 1L488.5 865.5" stroke="#F0EBE5" stroke-opacity="0.3"/>
<path d="M542.5 1L543 865.5" stroke="#F0EBE5" stroke-opacity="0.3"/>
<path d="M597.5 1V866" stroke="#F0EBE5" stroke-opacity="0.3"/>
<path d="M651 1L651.5 865.5" stroke="#F0EBE5" stroke-opacity="0.3"/>
<path d="M705.5 1L706 865.5" stroke="#F0EBE5" stroke-opacity="0.3"/>
<path d="M706 1L0 1.5" stroke="#F0EBE5" stroke-opacity="0.3"/>
<path d="M706 56H0" stroke="#F0EBE5" stroke-opacity="0.3"/>
<path d="M706 110H0" stroke="#F0EBE5" stroke-opacity="0.3"/>
<path d="M706 164H0" stroke="#F0EBE5" stroke-opacity="0.3"/>
<path d="M706 218H1" stroke="#F0EBE5" stroke-opacity="0.3"/>
<path d="M706 272H0" stroke="#F0EBE5" stroke-opacity="0.3"/>
<path d="M706 326H1" stroke="#F0EBE5" stroke-opacity="0.3"/>
<path d="M706 380H1" stroke="#F0EBE5" stroke-opacity="0.3"/>
<path d="M706 434H0" stroke="#F0EBE5" stroke-opacity="0.3"/>
<path d="M706 488L0 488.001" stroke="#F0EBE5" stroke-opacity="0.3"/>
<path d="M706 542L1 542.001" stroke="#F0EBE5" stroke-opacity="0.3"/>
<path d="M706 596L1 596.001" stroke="#F0EBE5" stroke-opacity="0.3"/>
<path d="M706 650L0 650.001" stroke="#F0EBE5" stroke-opacity="0.3"/>
<path d="M706 704.001H0" stroke="#F0EBE5" stroke-opacity="0.3"/>
<path d="M706 758.001H0" stroke="#F0EBE5" stroke-opacity="0.3"/>
<path d="M706 812.001H0" stroke="#F0EBE5" stroke-opacity="0.3"/>
<path d="M706 866.001H0" stroke="#F0EBE5" stroke-opacity="0.3"/>
</g>
<defs>
<clipPath id="clip0_2966_209">
<rect width="707" height="867" fill="white"/>
</clipPath>
</defs>
</svg>
